HIERARCHY
ROOT Hips
{
	OFFSET 0.00000 0.00000 0.00000
	CHANNELS 6 Xposition Yposition Zposition Zrotation Yrotation Xrotation 
	JOINT RightUpLegDummy
	{
		OFFSET 0 0 0
		CHANNELS 3 Zrotation Yrotation Xrotation
		JOINT RightUpLeg
		{
			OFFSET -3.52197 -3.41223 0.04002
			CHANNELS 3 Zrotation Yrotation Xrotation
			JOINT RightLeg
			{
				OFFSET -0.86543 -13.06008 -1.28655
				CHANNELS 3 Zrotation Yrotation Xrotation
				JOINT RightFoot
				{
					OFFSET -0.80713 -17.13930 -1.70707
					CHANNELS 3 Zrotation Yrotation Xrotation
					JOINT RightToes
					{
						OFFSET 0.00299 -1.73822 4.71938
						CHANNELS 3 Zrotation Yrotation Xrotation
						End Site
						{
							OFFSET 0.00480 -0.05414 3.03243
						}
					}
				}
			}
		}
	}
	JOINT SpineDummy
	{
		OFFSET 0 0 0
		CHANNELS 3 Zrotation Yrotation Xrotation
		JOINT Spine
		{
			OFFSET 0.00000 6.04702 0.41770
			CHANNELS 3 Zrotation Yrotation Xrotation
			JOINT Spine1
			{
				OFFSET -0.00002 10.39992 -1.69721
				CHANNELS 3 Zrotation Yrotation Xrotation
				JOINT HEadDummy
				{
					OFFSET 0 0 0
					CHANNELS 3 Zrotation Yrotation Xrotation
					JOINT Head
					{
						OFFSET -0.00001 3.43865 0.00443
						CHANNELS 3 Zrotation Yrotation Xrotation
						End Site
						{
							OFFSET -0.11418 5.02923 0.98969
						}
					}
				}
				JOINT LeftShoulder1Dummy
				{
					OFFSET 0 0 0
					CHANNELS 3 Zrotation Yrotation Xrotation
					JOINT LeftShoulder1
					{
						OFFSET 1.21361 -0.14262 -0.08662
						CHANNELS 3 Zrotation Yrotation Xrotation
						JOINT LeftArm
						{
							OFFSET 4.40875 -0.00132 0.12681
							CHANNELS 3 Zrotation Yrotation Xrotation
							JOINT LeftForeArm
							{
								OFFSET 8.94813 -0.09821 0.13217
								CHANNELS 3 Zrotation Yrotation Xrotation
								JOINT LeftHand
								{
									OFFSET 9.82063 -0.16591 0.14506
									CHANNELS 3 Zrotation Yrotation Xrotation
									End Site
									{
										OFFSET 7.19303 -0.20851 0.19067
									}
								}
							}
						}
					}
				}
				JOINT RightShoulderDummy
				{
					OFFSET 0 0 0
					CHANNELS 3 Zrotation Yrotation Xrotation
					JOINT RightShoulder
					{
						OFFSET -1.26534 -0.14262 -0.08661
						CHANNELS 3 Zrotation Yrotation Xrotation
						JOINT RightArm
						{
							OFFSET -4.30809 -0.00133 0.12683
							CHANNELS 3 Zrotation Yrotation Xrotation
							JOINT RightForeArm
							{
								OFFSET -8.99705 -0.09841 0.13211
								CHANNELS 3 Zrotation Yrotation Xrotation
								JOINT RightHand
								{
									OFFSET -9.82077 -0.16576 0.14421
									CHANNELS 3 Zrotation Yrotation Xrotation
									End Site
									{
										OFFSET -7.19310 -0.20866 0.18995
									}
								}
							}
						}
					}
				}
			}
		}
	}
	JOINT LeftUpLegDummy
	{
		OFFSET 0 0 0
		CHANNELS 3 Zrotation Yrotation Xrotation
		JOINT LeftUpLeg
		{
			OFFSET 3.52197 -3.41223 0.04002
			CHANNELS 3 Zrotation Yrotation Xrotation
			JOINT LeftLeg
			{
				OFFSET 0.94774 -13.07381 -1.28759
				CHANNELS 3 Zrotation Yrotation Xrotation
				JOINT LeftFoot
				{
					OFFSET 0.72832 -17.13147 -1.70602
					CHANNELS 3 Zrotation Yrotation Xrotation
					JOINT LeftToes
					{
						OFFSET -0.01574 -1.73820 4.71935
						CHANNELS 3 Zrotation Yrotation Xrotation
						End Site
						{
							OFFSET 0.03150 -0.01866 3.03230
						}
					}
				}
			}
		}
	}
}
MOTION
Frames: 15
Frame Time: 0.033333
-18.8768 36.9961 -49.4739 1.0646 18.1312 -3.0431 0.0000 0.0000 0.0000 -7.2524 9.4152 -43.7303 -9.3845 -4.5778 62.8982 -2.1285 -0.0105 7.5916 0.0000 0.0000 0.0000 0.0000 0.0000 0.0000 3.8002 -5.7916 -3.7852 -2.7714 -6.7456 -11.6459 -0.0000 0.0000 0.0000 -5.5610 -45.2499 2.5491 -0.0000 0.0000 0.0000 3.9757 3.9244 -0.0211 64.1251 -42.5180 -115.3273 -0.0237 -37.1772 -27.1336 -9.5464 -2.9582 0.3378 -0.0000 0.0000 0.0000 0.6960 -5.2089 -0.1549 -58.0561 14.7770 -112.8151 0.1211 30.1788 -29.2424 -8.0300 -6.7504 0.4713 0.0000 0.0000 0.0000 -14.7198 10.6586 -17.3289 3.8487 3.7643 40.5461 10.9897 -0.9114 -2.9322 -0.0000 0.0000 0.0000
-19.1285 37.1061 -48.8064 1.6111 26.8533 -2.7923 0.0000 0.0000 0.0000 -9.7534 13.3030 -41.5331 -3.0945 -2.2645 52.1189 0.3973 -0.3857 6.7753 0.0000 0.0000 0.0000 0.0000 0.0000 0.0000 1.1024 -5.6734 -3.9225 0.3728 -6.7945 -11.6356 -0.0000 0.0000 0.0000 -7.1971 -43.2384 4.5098 -0.0000 0.0000 0.0000 3.1674 3.7385 -0.0130 64.0551 -42.4086 -114.6631 -0.0286 -37.0931 -27.2909 -9.7467 -2.7483 0.3317 -0.0000 0.0000 0.0000 0.8482 -4.9767 -0.1358 -57.8868 15.6503 -112.8645 0.1147 31.0511 -29.2003 -8.0041 -6.9205 0.4851 0.0000 0.0000 0.0000 -14.2369 4.9449 -15.7030 2.4691 1.7939 40.9358 9.8514 -0.8608 -2.2574 -0.0000 0.0000 0.0000
-19.3872 37.2458 -48.0811 2.3331 35.6582 -2.4800 0.0000 0.0000 0.0000 -12.0717 16.6461 -38.0851 1.3304 1.2559 41.8651 2.2577 -0.5948 5.6268 0.0000 0.0000 0.0000 0.0000 0.0000 0.0000 -2.1061 -5.4026 -3.1463 4.1930 -6.4449 -13.9325 -0.0000 0.0000 0.0000 -8.1486 -41.1132 6.4093 -0.0000 0.0000 0.0000 2.3368 3.3152 0.0119 64.3657 -42.4069 -114.3895 -0.0315 -37.1618 -27.4187 -9.9620 -2.8020 0.3436 -0.0000 0.0000 0.0000 1.1932 -4.9132 -0.1342 -57.8665 16.1451 -111.9095 0.1441 31.5883 -30.4811 -8.1945 -6.4895 0.4552 0.0000 0.0000 0.0000 -13.3750 0.7555 -14.2666 0.0816 -0.8727 41.4103 9.3447 -0.8623 -1.1891 -0.0000 0.0000 0.0000
-19.5681 37.4016 -47.3026 3.1446 44.6684 -1.9958 0.0000 0.0000 0.0000 -12.6958 16.9524 -33.5228 3.4333 6.8536 33.6663 5.6794 -1.0179 4.6747 0.0000 0.0000 0.0000 0.0000 0.0000 0.0000 -4.8982 -5.3179 -2.2019 7.4394 -6.0958 -16.2203 -0.0000 0.0000 0.0000 -8.4272 -38.0718 7.2468 -0.0000 0.0000 0.0000 1.9170 3.0343 0.0317 64.2112 -42.4403 -114.0874 -0.0249 -37.4764 -27.2744 -9.8435 -3.0193 0.3547 -0.0000 0.0000 0.0000 1.5459 -4.7406 -0.1216 -57.8563 16.7435 -111.4157 0.1797 32.1051 -32.0037 -8.7653 -6.2883 0.4610 0.0000 0.0000 0.0000 -12.4372 -2.9331 -13.2641 -2.1119 -3.3366 42.1362 8.5389 -0.8330 -0.0558 -0.0000 0.0000 0.0000
-19.6461 37.6271 -46.3862 4.1775 54.4768 -0.4448 0.0000 0.0000 0.0000 -9.0352 8.7146 -29.4414 6.2537 20.0363 30.9198 7.5327 -1.3820 5.6068 0.0000 0.0000 0.0000 0.0000 0.0000 0.0000 -7.4516 -5.3683 -2.8547 10.7059 -6.0438 -14.4465 -0.0000 0.0000 0.0000 -8.0231 -35.3950 7.1272 -0.0000 0.0000 0.0000 1.9072 2.5788 0.0627 64.3316 -42.2062 -114.6905 -0.0130 -37.5029 -26.8345 -10.5168 -3.4468 0.4136 -0.0000 0.0000 0.0000 2.0709 -4.6776 -0.1209 -57.8732 16.6947 -111.1815 0.1775 32.3008 -31.9431 -8.8667 -5.8681 0.4244 0.0000 0.0000 0.0000 -11.2160 -6.1493 -12.8929 -3.6500 -4.9603 42.3356 8.2701 -0.8451 1.4048 -0.0000 0.0000 0.0000
-19.6393 37.8559 -45.5316 5.6862 63.6493 1.1238 0.0000 0.0000 0.0000 -7.5874 6.6422 -25.5902 7.7018 25.7913 31.2612 6.9520 -1.4201 6.7836 0.0000 0.0000 0.0000 0.0000 0.0000 0.0000 -9.1783 -5.2594 -2.4847 12.4452 -5.7705 -14.7125 -0.0000 0.0000 0.0000 -7.4501 -31.9622 6.9937 -0.0000 0.0000 0.0000 1.8170 2.6080 0.0615 64.7931 -42.1963 -115.1143 0.0190 -37.6282 -25.6660 -9.6061 -3.5269 0.3784 -0.0000 0.0000 0.0000 2.0075 -4.7393 -0.1266 -57.4182 17.6427 -111.4785 0.2045 32.7075 -33.0796 -9.4917 -5.3936 0.4006 0.0000 0.0000 0.0000 -9.9078 -6.9687 -12.6604 -3.2235 -4.3587 42.5233 5.1650 -0.5118 3.0764 -0.0000 0.0000 0.0000
-19.5206 38.0624 -44.7422 7.2649 71.9487 2.9894 0.0000 0.0000 0.0000 -6.0585 6.0264 -22.1056 5.0958 23.7032 30.1748 3.0352 -0.8445 7.3190 0.0000 0.0000 0.0000 0.0000 0.0000 0.0000 -9.3219 -4.9240 -2.5404 11.9353 -5.2886 -15.1846 -0.0000 0.0000 0.0000 -7.3071 -28.3122 8.3373 -0.0000 0.0000 0.0000 1.7355 2.6254 0.0609 64.9141 -41.8987 -115.1761 0.0390 -37.7482 -24.9460 -9.3213 -3.6522 0.3736 -0.0000 0.0000 0.0000 2.2572 -4.8156 -0.1373 -57.2763 18.7156 -111.8583 0.2096 32.8069 -33.2964 -9.4992 -5.0066 0.3617 0.0000 0.0000 0.0000 -8.0942 -3.1147 -12.7912 -1.1668 -2.3091 42.2768 1.3697 0.0012 4.3992 -0.0000 0.0000 0.0000
-19.3564 38.2278 -44.0402 12.8719 80.0089 9.8544 0.0000 0.0000 0.0000 -5.3074 3.7059 -20.3519 1.5114 18.3621 28.0357 2.9123 -0.8468 7.7026 0.0000 0.0000 0.0000 0.0000 0.0000 0.0000 -8.5385 -4.5490 -4.2313 10.6167 -4.8714 -13.7252 -0.0000 0.0000 0.0000 -6.4841 -24.4069 8.8066 -0.0000 0.0000 0.0000 1.4108 2.7152 0.0568 64.6391 -41.3031 -115.0427 0.0353 -37.9429 -25.1556 -9.7065 -3.4873 0.3798 -0.0000 0.0000 0.0000 1.7588 -4.6995 -0.1199 -56.5673 19.2421 -111.5511 0.2242 32.9273 -33.8759 -9.6052 -4.9015 0.3547 0.0000 0.0000 0.0000 -6.4723 4.2393 -14.1317 2.0021 0.6626 41.6619 -1.4499 0.4448 5.4868 -0.0000 0.0000 0.0000
-19.2248 38.3644 -43.4763 15.0932 88.3070 13.0602 0.0000 0.0000 0.0000 -4.5207 0.3276 -18.6249 -0.0915 13.3542 26.4332 0.5277 -0.4897 8.3527 0.0000 0.0000 0.0000 0.0000 0.0000 0.0000 -6.4925 -4.1350 -5.0104 8.0238 -4.3563 -14.0530 -0.0000 0.0000 0.0000 -5.9717 -19.9504 9.1970 -0.0000 0.0000 0.0000 0.7423 3.0247 0.0373 65.1849 -41.3751 -116.4411 0.0809 -37.8033 -23.3659 -10.7297 -3.6966 0.4422 -0.0000 0.0000 0.0000 1.3968 -4.6097 -0.1070 -55.8754 19.8687 -110.6251 0.2579 33.8245 -35.2600 -9.9756 -5.6596 0.4438 0.0000 0.0000 0.0000 -4.9142 14.0778 -15.5197 5.4213 4.1701 40.9487 -2.7884 0.6625 5.7875 -0.0000 0.0000 0.0000
-19.1752 38.4704 -42.9459 172.6840 82.2639 171.0260 0.0000 0.0000 0.0000 -4.6756 -2.2750 -15.7360 -1.3544 7.3824 24.1132 2.3183 -0.8037 8.4700 0.0000 0.0000 0.0000 0.0000 0.0000 0.0000 -5.0152 -3.8439 -4.1327 6.6964 -3.8382 -16.1293 -0.0000 0.0000 0.0000 -5.7788 -15.6198 9.2528 -0.0000 0.0000 0.0000 0.5503 3.3053 0.0159 64.8389 -41.5279 -116.1534 0.1062 -37.9733 -22.4565 -10.1674 -4.3819 0.4658 -0.0000 0.0000 0.0000 0.7911 -4.7705 -0.1161 -54.8398 20.4961 -109.5757 0.2669 34.7836 -35.8167 -9.9553 -5.5786 0.4354 0.0000 0.0000 0.0000 -4.0443 23.0518 -16.3968 8.3888 8.1130 39.6475 -3.6643 0.7810 5.6106 -0.0000 0.0000 0.0000
-19.1182 38.5551 -42.3977 178.5390 72.3127 177.5880 0.0000 0.0000 0.0000 -4.7925 -3.9833 -13.0036 -3.1210 -0.6863 22.0096 1.8042 -0.6971 8.1957 0.0000 0.0000 0.0000 0.0000 0.0000 0.0000 -4.5646 -3.6999 -3.6901 7.0059 -3.4017 -17.1293 -0.0000 0.0000 0.0000 -5.4621 -11.4073 9.2273 -0.0000 0.0000 0.0000 0.5523 2.8211 0.0544 63.9144 -40.8730 -115.2165 0.0909 -37.9220 -23.0270 -10.3994 -4.4243 0.4809 -0.0000 0.0000 0.0000 1.0158 -4.5969 -0.1024 -55.4602 20.2980 -108.6023 0.3131 34.2863 -37.3977 -10.2328 -4.9760 0.3779 0.0000 0.0000 0.0000 -4.1964 29.8491 -17.9842 9.5625 10.8237 38.3016 -4.2299 0.8733 5.7269 -0.0000 0.0000 0.0000
-19.0521 38.5893 -41.8695 178.9320 62.4034 178.5640 0.0000 0.0000 0.0000 -4.0377 -4.9414 -10.6789 -5.4514 -10.1053 20.7865 0.1434 -0.3859 7.5817 0.0000 0.0000 0.0000 0.0000 0.0000 0.0000 -4.0485 -3.4201 -2.8138 7.0345 -2.8654 -18.4827 -0.0000 0.0000 0.0000 -4.4919 -7.3720 8.4244 -0.0000 0.0000 0.0000 0.4199 2.7931 0.0575 64.0270 -40.4448 -115.5797 0.0866 -37.7954 -23.1431 -9.9737 -4.4062 0.4572 -0.0000 0.0000 0.0000 0.3088 -4.4615 -0.0839 -54.4594 20.4846 -107.7654 0.3710 35.4012 -39.7470 -11.6610 -4.5197 0.3679 0.0000 0.0000 0.0000 -5.1417 35.3620 -20.2521 9.3265 11.4363 37.3357 -2.2970 0.6003 5.9454 -0.0000 0.0000 0.0000
-18.8862 38.5735 -41.3768 178.7950 52.6632 179.3130 0.0000 0.0000 0.0000 -2.6343 -5.1691 -8.8761 -8.2574 -20.1630 19.9951 -2.7002 0.1082 6.6569 0.0000 0.0000 0.0000 0.0000 0.0000 0.0000 -3.8503 -3.0603 -2.6420 7.3154 -2.3503 -18.3514 -0.0000 0.0000 0.0000 -3.4167 -3.5303 7.6304 -0.0000 0.0000 0.0000 0.0067 2.8282 0.0570 64.3037 -39.8379 -116.2101 0.0755 -37.7701 -23.5627 -9.5037 -4.1000 0.4113 -0.0000 0.0000 0.0000 -0.1733 -4.2478 -0.0618 -54.1619 20.9761 -109.6317 0.3048 35.4281 -37.3104 -11.5468 -4.8440 0.4027 0.0000 0.0000 0.0000 -6.3796 40.0027 -22.3362 7.2520 10.2430 35.8717 -1.1943 0.4297 5.8764 -0.0000 0.0000 0.0000
-18.6752 38.5272 -40.9936 178.5710 43.0152 -179.7550 0.0000 0.0000 0.0000 -0.9694 -4.9916 -7.4658 -11.4353 -30.5678 19.6288 -3.7557 0.2852 5.8298 0.0000 0.0000 0.0000 0.0000 0.0000 0.0000 -3.3502 -2.7842 -3.2114 6.3481 -2.0798 -17.4246 -0.0000 0.0000 0.0000 -2.8675 0.2274 6.9915 -0.0000 0.0000 0.0000 -0.4627 3.1277 0.0334 64.6908 -39.4473 -117.1065 0.1011 -37.7912 -22.5772 -9.1625 -4.1916 0.4001 -0.0000 0.0000 0.0000 -0.1476 -4.2400 -0.0614 -54.6040 21.4846 -110.3409 0.3272 35.6697 -38.1748 -12.0755 -4.8522 0.4187 0.0000 0.0000 0.0000 -7.7830 42.5775 -24.3645 5.0657 9.2376 34.8715 -1.5430 0.4684 5.6196 -0.0000 0.0000 0.0000
-18.4262 38.4358 -40.7152 178.0040 33.2884 -179.2500 0.0000 0.0000 0.0000 0.8790 -4.1605 -6.8694 -16.7423 -41.1244 21.9012 -4.0873 0.3422 5.0366 0.0000 0.0000 0.0000 0.0000 0.0000 0.0000 -3.1654 -2.3409 -3.5228 6.2701 -1.5769 -17.1569 -0.0000 0.0000 0.0000 -3.1847 3.1462 6.9653 -0.0000 0.0000 0.0000 -0.6525 3.5227 -0.0018 64.5611 -39.4742 -118.3281 0.1056 -37.7055 -22.3679 -8.9643 -3.7914 0.3655 -0.0000 0.0000 0.0000 -0.2984 -4.1735 -0.0551 -54.8987 21.8107 -110.3422 0.3120 35.7544 -37.5457 -11.8247 -4.6932 0.3924 0.0000 0.0000 0.0000 -11.3738 47.3571 -27.9516 3.4138 6.3136 34.6889 0.4689 0.1581 5.2859 -0.0000 0.0000 0.0000
